# xmcd CD database file
#
# Track frame offsets:
#	150
#	18087
#	38827
#	61441
#	78101
#	98381
#	114430
#	134013
#	154812
#	169683
#	187713
#
# Disc length: 2557 seconds
#
# Revision: 1
# Processed by: cddbd v1.5.1PL2 Copyright (c) Steve Scherf et al.
# Submitted via: jetAudio 5
#
DISCID=7809fb0b
DTITLE=สมชาย ใหญ่ (2006) - จดหมายถึงบ้าน
DYEAR=1900
DGENRE=
TTITLE0=สยามเมืองยิ้ม
TTITLE1=จดหมายถึงบ้าน
TTITLE2=คนเดินดิน
TTITLE3=บ้านส่วนตัว
TTITLE4=ปู่ชิว
TTITLE5=อยากมีแม่บ้าน
TTITLE6=รักเธอตลอดไป
TTITLE7=พยายามอยู่ที่ไหน?
TTITLE8=ขอลืมเขาก่อน
TTITLE9=สู้เพื่อแม่
TTITLE10=จดหมายถึงบ้าน(Reprise)
EXTD=
EXTT0=
EXTT1=
EXTT2=
EXTT3=
EXTT4=
EXTT5=
EXTT6=
EXTT7=
EXTT8=
EXTT9=
EXTT10=
PLAYORDER=
